<?xml version="1.0" encoding="UTF-8" standalone="no"?>
<svg
   xmlns:dc="http://purl.org/dc/elements/1.1/"
   xmlns:cc="http://creativecommons.org/ns#"
   xmlns:rdf="http://www.w3.org/1999/02/22-rdf-syntax-ns#"
   xmlns:svg="http://www.w3.org/2000/svg"
   xmlns="http://www.w3.org/2000/svg"
   id="svg8"
   version="1.1"
   viewBox="0 0 173.96928 27.415052"
   height="27.415052mm"
   width="173.96928mm">
  <defs
     id="defs2" />
  <metadata
     id="metadata5">
    <rdf:RDF>
      <cc:Work
         rdf:about="">
        <dc:format>image/svg+xml</dc:format>
        <dc:type
           rdf:resource="http://purl.org/dc/dcmitype/StillImage" />
        <dc:title></dc:title>
      </cc:Work>
    </rdf:RDF>
  </metadata>
  <g
     transform="translate(-12.613341,-27.138357)"
     id="layer1">
    <g
       id="text12"
       style="font-style:normal;font-variant:normal;font-weight:normal;font-stretch:normal;font-size:36.08356476px;line-height:1.25;font-family:Roboto;-inkscape-font-specification:'Roboto, Normal';font-variant-ligatures:normal;font-variant-caps:normal;font-variant-numeric:normal;font-feature-settings:normal;text-align:start;letter-spacing:0px;word-spacing:0px;writing-mode:lr-tb;text-anchor:start;fill:#000000;fill-opacity:1;stroke:none;stroke-width:0.90208906"
       aria-label="timesketch">
      <path
         id="path119"
         style="font-style:normal;font-variant:normal;font-weight:bold;font-stretch:normal;font-size:36.08356476px;font-family:Roboto;-inkscape-font-specification:'Roboto, Bold';font-variant-ligatures:normal;font-variant-caps:normal;font-variant-numeric:normal;font-feature-settings:normal;text-align:start;writing-mode:lr-tb;text-anchor:start;stroke-width:0.90208906"
         d="m 20.489002,30.450716 v 4.686635 h 3.259502 v 3.735212 h -3.259502 v 9.514221 q 0,1.057136 0.405235,1.515228 0.405236,0.458092 1.550466,0.458092 0.845709,0 1.497609,-0.123332 v 3.858545 q -1.497609,0.458092 -3.083312,0.458092 -5.356155,0 -5.461868,-5.409011 V 38.872563 h -2.783791 v -3.735212 h 2.783791 v -4.686635 z" />
      <path
         id="path121"
         style="font-style:normal;font-variant:normal;font-weight:bold;font-stretch:normal;font-size:36.08356476px;font-family:Roboto;-inkscape-font-specification:'Roboto, Bold';font-variant-ligatures:normal;font-variant-caps:normal;font-variant-numeric:normal;font-feature-settings:normal;text-align:start;writing-mode:lr-tb;text-anchor:start;stroke-width:0.90208906"
         d="m 31.958924,54.201031 h -5.109489 v -19.06368 h 5.109489 z m -5.409011,-23.99698 q 0,-1.145231 0.757614,-1.885226 0.775233,-0.739995 2.096652,-0.739995 1.303801,0 2.079034,0.739995 0.775233,0.739995 0.775233,1.885226 0,1.162849 -0.792852,1.902844 -0.775233,0.739995 -2.061415,0.739995 -1.286181,0 -2.079033,-0.739995 -0.775233,-0.739995 -0.775233,-1.902844 z" />
      <path
         id="path123"
         style="font-style:normal;font-variant:normal;font-weight:bold;font-stretch:normal;font-size:36.08356476px;font-family:Roboto;-inkscape-font-specification:'Roboto, Bold';font-variant-ligatures:normal;font-variant-caps:normal;font-variant-numeric:normal;font-feature-settings:normal;text-align:start;writing-mode:lr-tb;text-anchor:start;stroke-width:0.90208906"
         d="m 40.944577,35.137351 0.158571,2.13189 q 2.026176,-2.484269 5.479486,-2.484269 3.682356,0 5.056633,2.907123 2.008557,-2.907123 5.726151,-2.907123 3.100931,0 4.616159,1.81475 1.515228,1.79713 1.515228,5.426629 v 12.17468 H 58.387316 V 42.04397 q 0,-1.620941 -0.634281,-2.360936 -0.634282,-0.757614 -2.237604,-0.757614 -2.290461,0 -3.171407,2.184747 l 0.01762,13.090864 H 47.269772 V 42.061589 q 0,-1.656179 -0.6519,-2.396174 -0.6519,-0.739995 -2.219985,-0.739995 -2.167128,0 -3.136169,1.797131 v 13.47848 h -5.09187 v -19.06368 z" />
      <path
         id="path125"
         style="font-style:normal;font-variant:normal;font-weight:bold;font-stretch:normal;font-size:36.08356476px;font-family:Roboto;-inkscape-font-specification:'Roboto, Bold';font-variant-ligatures:normal;font-variant-caps:normal;font-variant-numeric:normal;font-feature-settings:normal;text-align:start;writing-mode:lr-tb;text-anchor:start;stroke-width:0.90208906"
         d="m 76.164813,54.553409 q -4.193305,0 -6.836144,-2.572363 -2.62522,-2.572364 -2.62522,-6.853763 v -0.49333 q 0,-2.871886 1.109992,-5.127108 1.109993,-2.272842 3.136169,-3.488548 2.043796,-1.233325 4.651397,-1.233325 3.911403,0 6.149006,2.46665 2.255223,2.46665 2.255223,6.994714 V 46.32537 H 71.865795 q 0.246665,1.867606 1.47999,2.995218 1.250944,1.127611 3.153788,1.127611 2.942361,0 4.59854,-2.13189 l 2.501888,2.801409 q -1.14523,1.620942 -3.100931,2.537126 -1.955702,0.898565 -4.334257,0.898565 z M 75.583389,38.907801 q -1.515228,0 -2.46665,1.021898 -0.933804,1.021898 -1.198087,2.924742 h 7.082809 v -0.405235 q -0.03524,-1.691417 -0.916185,-2.607602 -0.880946,-0.933803 -2.501887,-0.933803 z" />
      <path
         id="path127"
         style="font-style:normal;font-variant:normal;font-weight:300;font-stretch:normal;font-size:36.08356476px;font-family:Roboto;-inkscape-font-specification:'Roboto, Light';font-variant-ligatures:normal;font-variant-caps:normal;font-variant-numeric:normal;font-feature-settings:normal;text-align:start;writing-mode:lr-tb;text-anchor:start;stroke-width:0.90208906"
         d="m 99.122278,49.355826 q 0,-1.568085 -1.268562,-2.519507 -1.250944,-0.951422 -3.78807,-1.47999 -2.537126,-0.546187 -3.94664,-1.233325 -1.391895,-0.704757 -2.079033,-1.709036 -0.66952,-1.004279 -0.66952,-2.431412 0,-2.255223 1.885226,-3.717594 1.885225,-1.47999 4.827586,-1.47999 3.189026,0 5.109489,1.585703 1.938086,1.568085 1.938086,4.105211 h -2.114275 q 0,-1.673798 -1.409514,-2.783791 -1.391896,-1.109992 -3.523786,-1.109992 -2.079033,0 -3.347596,0.933803 -1.250944,0.916184 -1.250944,2.396174 0,1.427133 1.039517,2.219985 1.057135,0.775233 3.823307,1.427133 2.783791,0.6519 4.158067,1.391895 1.391895,0.739995 2.061414,1.779512 0.66952,1.039517 0.66952,2.519507 0,2.413793 -1.955701,3.858545 -1.938082,1.444752 -5.074251,1.444752 -3.329978,0 -5.409011,-1.603322 -2.061415,-1.620942 -2.061415,-4.087591 h 2.114271 q 0.123333,1.849987 1.550466,2.889504 1.444752,1.021898 3.805689,1.021898 2.202366,0 3.559023,-0.969041 1.356657,-0.969042 1.356657,-2.449031 z" />
      <path
         id="path129"
         style="font-style:normal;font-variant:normal;font-weight:300;font-stretch:normal;font-size:36.08356476px;font-family:Roboto;-inkscape-font-specification:'Roboto, Light';font-variant-ligatures:normal;font-variant-caps:normal;font-variant-numeric:normal;font-feature-settings:normal;text-align:start;writing-mode:lr-tb;text-anchor:start;stroke-width:0.90208906"
         d="m 110.48649,44.598715 -2.41379,2.325698 v 7.276618 h -2.11427 V 27.138357 h 2.11427 v 17.319406 l 1.99094,-2.149509 7.29423,-7.170903 h 2.66046 l -8.08709,8.034231 8.79185,11.029449 h -2.51951 z" />
      <path
         id="path131"
         style="font-style:normal;font-variant:normal;font-weight:300;font-stretch:normal;font-size:36.08356476px;font-family:Roboto;-inkscape-font-specification:'Roboto, Light';font-variant-ligatures:normal;font-variant-caps:normal;font-variant-numeric:normal;font-feature-settings:normal;text-align:start;writing-mode:lr-tb;text-anchor:start;stroke-width:0.90208906"
         d="m 130.67778,54.553409 q -2.43142,0 -4.40474,-1.198087 -1.9557,-1.198087 -3.04807,-3.329977 -1.09237,-2.149509 -1.09237,-4.809968 v -0.757614 q 0,-2.748552 1.05713,-4.950918 1.07476,-2.202366 2.9776,-3.45331 1.90285,-1.268563 4.12283,-1.268563 3.47093,0 5.49711,2.378555 2.04379,2.360937 2.04379,6.466147 v 1.180468 h -13.60181 v 0.405235 q 0,3.241883 1.84999,5.409011 1.8676,2.14951 4.68663,2.14951 1.69142,0 2.9776,-0.616663 1.3038,-0.616662 2.36094,-1.97332 l 1.32142,1.004279 q -2.3257,3.365215 -6.74805,3.365215 z m -0.38762,-17.971306 q -2.37855,0 -4.01712,1.744274 -1.62094,1.744273 -1.97332,4.686634 h 11.43469 v -0.229046 q -0.0881,-2.748552 -1.56809,-4.475207 -1.47999,-1.726655 -3.87616,-1.726655 z" />
      <path
         id="path133"
         style="font-style:normal;font-variant:normal;font-weight:300;font-stretch:normal;font-size:36.08356476px;font-family:Roboto;-inkscape-font-specification:'Roboto, Light';font-variant-ligatures:normal;font-variant-caps:normal;font-variant-numeric:normal;font-feature-settings:normal;text-align:start;writing-mode:lr-tb;text-anchor:start;stroke-width:0.90208906"
         d="m 145.24863,30.256907 v 4.880444 h 3.94664 v 1.726654 h -3.94664 v 12.703248 q 0,1.585703 0.56381,2.360936 0.58142,0.775233 1.92046,0.775233 0.52857,0 1.70903,-0.176189 l 0.0881,1.726655 q -0.82809,0.299521 -2.25522,0.299521 -2.16713,0 -3.15379,-1.250944 -0.98666,-1.268562 -0.98666,-3.717593 V 36.864005 h -3.50617 v -1.726654 h 3.50617 v -4.880444 z" />
      <path
         id="path135"
         style="font-style:normal;font-variant:normal;font-weight:300;font-stretch:normal;font-size:36.08356476px;font-family:Roboto;-inkscape-font-specification:'Roboto, Light';font-variant-ligatures:normal;font-variant-caps:normal;font-variant-numeric:normal;font-feature-settings:normal;text-align:start;writing-mode:lr-tb;text-anchor:start;stroke-width:0.90208906"
         d="m 160.64758,52.773898 q 2.20237,0 3.68236,-1.233325 1.49761,-1.250944 1.62094,-3.224264 h 2.02618 q -0.0881,1.744274 -1.09238,3.189026 -1.00428,1.427133 -2.67807,2.237604 -1.65618,0.81047 -3.55903,0.81047 -3.75283,0 -5.9552,-2.607601 -2.18474,-2.607601 -2.18474,-7.012333 v -0.634282 q 0,-2.819028 0.98666,-4.986157 0.98666,-2.167128 2.81903,-3.347596 1.84998,-1.180468 4.31663,-1.180468 3.13617,0 5.16235,1.867606 2.0438,1.867607 2.18475,4.915681 h -2.02618 q -0.14095,-2.237604 -1.62094,-3.61188 -1.46237,-1.374276 -3.69998,-1.374276 -2.85426,0 -4.43997,2.061414 -1.56808,2.061415 -1.56808,5.779009 v 0.616662 q 0,3.647118 1.56808,5.690914 1.58571,2.043796 4.45759,2.043796 z" />
      <path
         id="path137"
         style="font-style:normal;font-variant:normal;font-weight:300;font-stretch:normal;font-size:36.08356476px;font-family:Roboto;-inkscape-font-specification:'Roboto, Light';font-variant-ligatures:normal;font-variant-caps:normal;font-variant-numeric:normal;font-feature-settings:normal;text-align:start;writing-mode:lr-tb;text-anchor:start;stroke-width:0.90208906"
         d="m 174.30224,38.361614 q 1.03952,-1.709036 2.66046,-2.642839 1.62094,-0.933803 3.5414,-0.933803 3.0657,0 4.5633,1.726655 1.49761,1.726655 1.51523,5.179965 v 12.509439 h -2.09665 V 41.673973 q -0.0176,-2.554745 -1.09237,-3.805689 -1.05714,-1.250944 -3.40046,-1.250944 -1.9557,0 -3.47093,1.233325 -1.4976,1.215706 -2.21998,3.29474 v 13.055626 h -2.09665 V 27.138357 h 2.09665 z" />
    </g>
  </g>
</svg>
