<?xml version="1.0" encoding="utf-8"?>
<!-- Generator: Adobe Illustrator 23.0.3, SVG Export Plug-In . SVG Version: 6.00 Build 0)  -->
<svg version="1.1" id="Layer_1" xmlns="http://www.w3.org/2000/svg" xmlns:xlink="http://www.w3.org/1999/xlink" x="0px" y="0px"
	 viewBox="0 0 161.04 155.63" style="enable-background:new 0 0 161.04 155.63;" xml:space="preserve">
<style type="text/css">
	.st0{fill:#0071BC;}
	.st1{fill:#84D3EF;}
</style>
<g>
	<path class="st0" d="M5.68,151.18c0,0.97,0.24,1.65,0.73,2.03c0.48,0.38,1.12,0.58,1.91,0.58c0.4,0,0.78-0.04,1.14-0.12
		c0.35-0.08,0.73-0.22,1.13-0.42v2c-0.4,0.22-0.83,0.39-1.29,0.5c-0.45,0.11-0.97,0.17-1.53,0.17c-0.63,0-1.21-0.08-1.76-0.24
		c-0.55-0.16-1.02-0.42-1.41-0.77c-0.39-0.35-0.7-0.81-0.92-1.38c-0.22-0.57-0.33-1.24-0.33-2.03v-9.45H1.17v-2.06h2.18v-4.73h2.34
		v4.73h4.97v2.06H5.68V151.18z"/>
	<path class="st0" d="M14.83,136.54v-2.58h2.67v2.58H14.83z M14.98,155.63v-15.67h2.33v15.67H14.98z"/>
	<path class="st0" d="M36.12,141.54c0.35-0.38,0.75-0.72,1.19-1c0.44-0.28,0.95-0.51,1.5-0.67c0.56-0.16,1.18-0.24,1.87-0.24
		c1.82,0,3.24,0.56,4.27,1.68c1.03,1.12,1.55,2.66,1.55,4.62v9.7h-2.34v-9.15c0-1.52-0.36-2.68-1.07-3.5
		c-0.72-0.82-1.71-1.23-2.98-1.23c-0.59,0-1.14,0.11-1.67,0.32c-0.52,0.21-0.99,0.53-1.38,0.94c-0.39,0.41-0.71,0.92-0.94,1.53
		c-0.23,0.61-0.35,1.29-0.35,2.06v9.03h-2.3v-9.21c0-1.47-0.36-2.62-1.07-3.44c-0.72-0.82-1.7-1.23-2.96-1.23
		c-0.63,0-1.2,0.12-1.73,0.36c-0.53,0.24-0.99,0.59-1.38,1.03c-0.39,0.44-0.7,0.96-0.92,1.56s-0.33,1.26-0.33,1.98v8.94h-2.33
		v-15.67h2.33v2.64c0.26-0.38,0.55-0.76,0.86-1.12c0.31-0.36,0.67-0.68,1.07-0.95c0.41-0.27,0.86-0.49,1.37-0.65
		c0.5-0.16,1.09-0.24,1.76-0.24c1.27,0,2.32,0.3,3.15,0.89c0.83,0.6,1.46,1.34,1.88,2.23C35.45,142.33,35.76,141.92,36.12,141.54z"
		/>
	<path class="st0" d="M52.58,150.92c0.32,0.66,0.74,1.21,1.24,1.67s1.07,0.8,1.7,1.03s1.28,0.35,1.97,0.35c1.09,0,2.02-0.2,2.8-0.61
		c0.78-0.4,1.49-0.94,2.14-1.61l1.45,1.3c-0.78,0.89-1.68,1.6-2.69,2.14c-1.01,0.54-2.26,0.8-3.76,0.8c-1.07,0-2.08-0.2-3.03-0.59
		c-0.95-0.39-1.78-0.95-2.49-1.67c-0.71-0.72-1.28-1.58-1.7-2.59c-0.42-1.01-0.63-2.12-0.63-3.33c0-1.13,0.19-2.2,0.56-3.2
		c0.37-1,0.9-1.87,1.56-2.61c0.67-0.74,1.46-1.32,2.38-1.74c0.92-0.42,1.92-0.64,3.02-0.64c1.15,0,2.18,0.22,3.09,0.65
		c0.91,0.43,1.68,1.02,2.3,1.77c0.63,0.75,1.1,1.63,1.42,2.64c0.32,1.01,0.49,2.09,0.49,3.24c0,0.1,0,0.21,0,0.33
		c0,0.12-0.01,0.25-0.03,0.39H51.98C52.06,149.51,52.26,150.26,52.58,150.92z M62.01,146.93c-0.06-0.71-0.21-1.38-0.44-2.03
		c-0.23-0.65-0.55-1.21-0.96-1.7c-0.41-0.48-0.92-0.87-1.51-1.17c-0.59-0.29-1.28-0.44-2.07-0.44c-0.68,0-1.31,0.14-1.9,0.41
		c-0.58,0.27-1.09,0.65-1.53,1.12c-0.44,0.47-0.8,1.03-1.08,1.68c-0.28,0.65-0.46,1.35-0.54,2.12H62.01z"/>
	<path class="st0" d="M79.39,153.04c-0.31,0.66-0.75,1.2-1.32,1.62c-0.57,0.42-1.23,0.74-1.98,0.95c-0.76,0.21-1.57,0.32-2.44,0.32
		c-1.15,0-2.33-0.2-3.53-0.59c-1.2-0.39-2.35-1.02-3.44-1.86l1.97-3.03c0.89,0.65,1.77,1.13,2.65,1.45c0.88,0.32,1.7,0.48,2.47,0.48
		c0.67,0,1.16-0.11,1.47-0.33c0.31-0.22,0.47-0.51,0.47-0.88v-0.06c0-0.24-0.09-0.46-0.27-0.64c-0.18-0.18-0.43-0.34-0.74-0.47
		c-0.31-0.13-0.67-0.26-1.08-0.38c-0.4-0.12-0.83-0.25-1.27-0.39c-0.57-0.16-1.14-0.36-1.71-0.59c-0.58-0.23-1.1-0.53-1.56-0.91
		c-0.46-0.37-0.84-0.83-1.13-1.38c-0.3-0.54-0.44-1.21-0.44-2v-0.06c0-0.83,0.16-1.56,0.47-2.2c0.31-0.64,0.74-1.18,1.27-1.62
		c0.53-0.44,1.16-0.78,1.88-1c0.72-0.22,1.49-0.33,2.32-0.33c1.03,0,2.08,0.17,3.14,0.5c1.06,0.33,2.03,0.79,2.92,1.38l-1.76,3.18
		c-0.81-0.47-1.6-0.83-2.36-1.11c-0.77-0.27-1.44-0.41-2.03-0.41c-0.57,0-0.99,0.11-1.27,0.32c-0.28,0.21-0.42,0.48-0.42,0.8v0.06
		c0,0.22,0.09,0.42,0.27,0.59c0.18,0.17,0.43,0.33,0.73,0.48c0.31,0.15,0.65,0.3,1.05,0.44s0.81,0.28,1.26,0.42
		c0.57,0.18,1.14,0.4,1.73,0.65c0.58,0.25,1.11,0.56,1.57,0.92s0.85,0.81,1.15,1.33c0.3,0.53,0.45,1.16,0.45,1.91v0.06
		C79.86,151.6,79.7,152.38,79.39,153.04z"/>
	<path class="st0" d="M92.61,155.63L88.37,149l-1.6,1.7v4.94h-4.61v-22.12h4.61v11.79l5.39-5.91h5.51l-6.18,6.39l6.39,9.85H92.61z"
		/>
	<path class="st0" d="M114.23,148.54c-0.01,0.16-0.03,0.35-0.04,0.58h-11.3c0.22,1.05,0.68,1.84,1.38,2.38
		c0.7,0.54,1.56,0.8,2.59,0.8c0.77,0,1.46-0.13,2.06-0.39c0.6-0.26,1.23-0.69,1.88-1.27l2.64,2.33c-0.77,0.95-1.7,1.69-2.79,2.23
		c-1.09,0.54-2.37,0.8-3.85,0.8c-1.21,0-2.34-0.2-3.38-0.61c-1.04-0.4-1.94-0.98-2.69-1.73c-0.76-0.75-1.35-1.63-1.77-2.65
		c-0.43-1.02-0.64-2.16-0.64-3.41v-0.06c0-1.15,0.2-2.24,0.59-3.27c0.39-1.03,0.94-1.93,1.65-2.7c0.71-0.77,1.55-1.37,2.53-1.82
		c0.98-0.44,2.07-0.67,3.26-0.67c1.35,0,2.53,0.24,3.51,0.73c0.99,0.48,1.81,1.14,2.47,1.95c0.66,0.82,1.14,1.76,1.46,2.82
		c0.31,1.06,0.47,2.17,0.47,3.32v0.06C114.25,148.19,114.24,148.38,114.23,148.54z M108.67,143.74c-0.58-0.64-1.36-0.95-2.33-0.95
		c-0.97,0-1.75,0.31-2.35,0.94c-0.59,0.63-0.99,1.46-1.17,2.52h6.94C109.62,145.21,109.26,144.37,108.67,143.74z"/>
	<path class="st0" d="M124.55,155.65c-0.58,0.17-1.26,0.26-2.03,0.26c-0.71,0-1.35-0.08-1.92-0.23c-0.58-0.15-1.07-0.42-1.48-0.8
		c-0.42-0.38-0.74-0.88-0.97-1.5c-0.23-0.61-0.35-1.4-0.35-2.35v-7.7h-1.94v-3.94h1.94v-4.15h4.6v4.15h3.82v3.94h-3.82v6.94
		c0,1.05,0.5,1.57,1.48,1.57c0.81,0,1.57-0.19,2.27-0.58v3.7C125.67,155.25,125.14,155.48,124.55,155.65z"/>
	<path class="st0" d="M140.85,155.16c-1.01,0.56-2.32,0.83-3.94,0.83c-1.21,0-2.34-0.22-3.38-0.67c-1.04-0.44-1.94-1.05-2.68-1.8
		c-0.75-0.76-1.33-1.65-1.76-2.67c-0.43-1.02-0.64-2.11-0.64-3.26v-0.06c0-1.15,0.21-2.24,0.64-3.27c0.42-1.03,1.01-1.93,1.76-2.7
		c0.75-0.77,1.64-1.37,2.68-1.82c1.04-0.44,2.19-0.67,3.44-0.67c1.53,0,2.81,0.24,3.82,0.73s1.9,1.15,2.67,2l-2.82,3.03
		c-0.53-0.54-1.07-0.98-1.62-1.3c-0.55-0.32-1.25-0.48-2.08-0.48c-0.58,0-1.12,0.12-1.59,0.35c-0.48,0.23-0.89,0.55-1.24,0.95
		c-0.36,0.4-0.63,0.87-0.82,1.41c-0.19,0.54-0.29,1.11-0.29,1.71v0.06c0,0.63,0.1,1.21,0.29,1.76c0.19,0.55,0.47,1.02,0.84,1.43
		c0.36,0.4,0.8,0.72,1.3,0.95c0.5,0.23,1.07,0.35,1.7,0.35c0.77,0,1.44-0.16,2.01-0.47c0.58-0.31,1.14-0.73,1.71-1.26l2.7,2.73
		C142.76,153.89,141.86,154.61,140.85,155.16z"/>
	<path class="st0" d="M156.44,155.63v-9.04c0-1.09-0.24-1.91-0.73-2.46c-0.49-0.55-1.17-0.83-2.06-0.83c-0.89,0-1.59,0.28-2.11,0.83
		c-0.51,0.55-0.77,1.37-0.77,2.46v9.04h-4.61v-22.12h4.61v8.2c0.26-0.35,0.55-0.68,0.86-0.99c0.31-0.31,0.66-0.59,1.05-0.84
		c0.38-0.24,0.81-0.44,1.27-0.58c0.46-0.14,0.99-0.21,1.58-0.21c1.76,0,3.11,0.54,4.07,1.6c0.96,1.07,1.44,2.55,1.44,4.43v10.51
		H156.44z"/>
</g>
<g>
	<path class="st0" d="M70.97,80.99V19.25h5.24V0C50.99,0.36,30.66,20.89,30.66,46.19c0,25.3,20.34,45.83,45.56,46.19V92.1
		L70.97,80.99z"/>
	<path class="st1" d="M83.49,19.69v61.3l-5.65,11.97v18.99c25.3-0.36,45.71-20.96,45.71-46.35
		C123.55,42.13,106.11,22.77,83.49,19.69z"/>
</g>
</svg>
